<svg xmlns="http://www.w3.org/2000/svg" viewBox="0 0 64 64" width="64" height="64">
  <defs>
    <radialGradient id="glow" cx="50%" cy="42%" r="55%">
      <stop offset="0%" stop-color="#ffd08a" stop-opacity="0.85"/>
      <stop offset="100%" stop-color="#ffb04a" stop-opacity="0"/>
    </radialGradient>
    <linearGradient id="glass" x1="0" y1="0" x2="1" y2="1">
      <stop offset="0%" stop-color="#ffd79a"/>
      <stop offset="100%" stop-color="#ff9f2e"/>
    </linearGradient>
  </defs>

  <circle cx="32" cy="26" r="24" fill="url(#glow)"/>

  <!-- glass envelope and neck -->
  <path d="M32 6
           a17 17 0 0 1 10.5 30.4
           l-1.4 5.1
           h-18.2
           l-1.4-5.1
           A17 17 0 0 1 32 6 z"
        fill="url(#glass)" stroke="#a85c05" stroke-width="2.5" stroke-linejoin="round"/>

  <!-- screw base -->
  <rect x="24" y="43" width="16" height="5" rx="2" fill="#8d8f94"/>
  <rect x="25" y="49.5" width="14" height="5" rx="2" fill="#8d8f94"/>
  <path d="M27 56 h10 a3 3 0 0 1 -3 3 h-4 a3 3 0 0 1 -3 -3 z" fill="#6f7176"/>
</svg>
